<svg version="1.1" xmlns="http://www.w3.org/2000/svg" xmlns:xlink="http://www.w3.org/1999/xlink" width="53.30645" height="55.59301" viewBox="0,0,53.30645,55.59301"><g transform="translate(-201.73387,-159.04408)"><g stroke-miterlimit="10"><path d="M204.31523,187.59475c-0.48191,-0.07414 -0.71666,-0.56032 -0.71666,-0.56032l-0.5791,-1.58486c1.36798,-1.82353 3.05632,-2.80758 4.99783,-3.93411c1.13198,-0.65681 2.11038,-1.4379 3.29601,-2.01338c2.2452,-1.08411 4.49896,-2.15096 6.64489,-3.41441c1.74299,-1.02622 3.25066,-2.20076 5.09319,-3.09169c1.31746,-0.63705 4.0744,-1.50284 4.80841,-2.89528c0.13926,-0.26418 -0.05567,-0.59521 -0.06189,-0.89379c-0.01855,-0.89096 -0.03533,-1.78197 -0.04708,-2.67305c-0.01683,-1.27695 -0.301,-3.35546 -0.10589,-4.58714c0.00227,-0.01434 0.00459,-0.02867 0.00696,-0.04299l-0.00544,-0.00032l0.11007,-1.92039c0.01332,-0.34898 0.21419,-0.67927 0.5506,-0.84171c0.44073,-0.21281 0.96241,-0.06429 1.22965,0.32859l0.65306,0.92453l-0.02259,0.01596l0.06628,0.05165c0.8995,1.85694 2.1149,3.5608 3.19215,5.32086c2.10641,2.99552 3.57161,6.50914 5.16308,9.80508c2.98677,6.18562 5.78824,12.42147 8.77468,18.60639c0.5789,1.19891 1.32417,2.43237 1.77799,3.68221c0.31748,0.87436 1.10446,1.78605 0.81325,2.66951c-0.31429,0.95346 -3.44506,0.41494 -3.84194,0.33886c-1.98481,-0.3805 -4.1698,-0.88845 -6.07822,-1.54781c-0.8918,-0.30811 -1.70381,-1.00132 -2.64733,-1.00185c-0.37969,-0.00021 -0.6541,0.38652 -0.99129,0.56108c-1.0291,0.53276 -2.08707,1.00782 -3.13068,1.51155c-2.97498,1.43595 -5.93999,2.70616 -9.00632,3.9258c-1.0443,0.38139 -2.12116,0.67585 -3.14781,1.10248c-0.62246,0.25867 -1.17292,0.69893 -1.82422,0.87265c-0.67786,0.18081 -1.45978,0.46573 -2.09753,0.1734c-0.56499,-0.25898 -0.65313,-1.05763 -0.98202,-1.58499c-0.62263,-0.99834 -1.29707,-1.96457 -1.99278,-2.91343c-3.43091,-4.67927 -7.19672,-9.25338 -9.89929,-14.38908z" fill="#000000" stroke="none" stroke-width="0.5" stroke-linecap="butt"/><path d="M202.98387,166.93548l50.80645,43.06452" fill="none" stroke="#ff0000" stroke-width="2.5" stroke-linecap="round"/><path d="M244.59677,162.09677l-32.41936,51.29032" fill="none" stroke="#ff0000" stroke-width="2.5" stroke-linecap="round"/></g></g></svg>