<svg version="1.1" xmlns="http://www.w3.org/2000/svg" xmlns:xlink="http://www.w3.org/1999/xlink" width="73.96105" height="53.21602" viewBox="0,0,73.96105,53.21602"><g transform="translate(-203.01948,-153.39199)"><g fill="#000000" stroke="none" stroke-width="0.5" stroke-miterlimit="10"><path d="M204.31523,187.59475c-0.48191,-0.07414 -0.71666,-0.56032 -0.71666,-0.56032l-0.5791,-1.58486c1.36798,-1.82353 3.05632,-2.80758 4.99783,-3.93411c1.13198,-0.65681 2.11038,-1.4379 3.29601,-2.01338c2.2452,-1.08411 4.49896,-2.15096 6.64489,-3.41441c1.74299,-1.02622 3.25066,-2.20076 5.09319,-3.09169c1.31746,-0.63705 4.0744,-1.50284 4.80841,-2.89528c0.13926,-0.26418 -0.05567,-0.59521 -0.06189,-0.89379c-0.01855,-0.89096 -0.03533,-1.78197 -0.04708,-2.67305c-0.01683,-1.27695 -0.301,-3.35546 -0.10589,-4.58714c0.00227,-0.01434 0.00459,-0.02867 0.00696,-0.04299l-0.00544,-0.00032l0.11007,-1.92039c0.01332,-0.34898 0.21419,-0.67927 0.5506,-0.84171c0.44073,-0.21281 0.96241,-0.06429 1.22965,0.32859l0.65306,0.92453l-0.02259,0.01596l0.06628,0.05165c0.8995,1.85694 2.1149,3.5608 3.19215,5.32086c2.10641,2.99552 3.57161,6.50914 5.16308,9.80508c2.98677,6.18562 5.78824,12.42147 8.77468,18.60639c0.5789,1.19891 1.32417,2.43237 1.77799,3.68221c0.31748,0.87436 1.10446,1.78605 0.81325,2.66951c-0.31429,0.95346 -3.44506,0.41494 -3.84194,0.33886c-1.98481,-0.3805 -4.1698,-0.88845 -6.07822,-1.54781c-0.8918,-0.30811 -1.70381,-1.00132 -2.64733,-1.00185c-0.37969,-0.00021 -0.6541,0.38652 -0.99129,0.56108c-1.0291,0.53276 -2.08707,1.00782 -3.13068,1.51155c-2.97498,1.43595 -5.93999,2.70616 -9.00632,3.9258c-1.0443,0.38139 -2.12116,0.67585 -3.14781,1.10248c-0.62246,0.25867 -1.17292,0.69893 -1.82422,0.87265c-0.67786,0.18081 -1.45978,0.46573 -2.09753,0.1734c-0.56499,-0.25898 -0.65313,-1.05763 -0.98202,-1.58499c-0.62263,-0.99834 -1.29707,-1.96457 -1.99278,-2.91343c-3.43091,-4.67927 -7.19672,-9.25338 -9.89929,-14.38908z"/><path d="M256.76586,184.65957c-0.87806,0.42398 -1.30204,-0.45408 -1.30204,-0.45408l-0.37938,-0.80823c-0.29282,-0.92362 -0.70247,-2.05384 -0.76428,-3.01905c-0.13937,-2.17633 0.36176,-4.56145 -0.36676,-6.70089c-0.97702,-2.86921 -2.85182,-4.91106 -4.71069,-7.18557c-0.31246,-0.38233 -0.48121,-0.86973 -0.80052,-1.24635c-1.1983,-1.41334 -3.24048,-2.34434 -4.871,-3.12279c0,0 -0.87959,-0.42079 -0.4588,-1.30039c0.42079,-0.87959 1.30039,-0.4588 1.30039,-0.4588c1.8932,0.90741 4.09516,1.98835 5.50264,3.60423c0.34193,0.39256 0.52296,0.90555 0.85235,1.30869c2.00224,2.45054 4.00637,4.71211 5.04241,7.80481c0.77447,2.3119 0.32806,4.79971 0.45482,7.15328c0.03803,0.70624 0.46303,1.89869 0.67785,2.57175l0.27711,0.55136c0,0 0.42398,0.87807 -0.45409,1.30205z"/><path d="M265.49015,178.79812c-0.96578,-0.13429 -0.83149,-1.10007 -0.83149,-1.10007l0.08541,-0.49586c-0.05288,-1.26397 -0.15249,-2.73274 -0.50195,-3.93687c-0.42192,-1.45376 -1.46878,-3.00002 -2.12396,-4.35824c-0.66002,-1.36826 -1.39162,-3.18241 -2.30976,-4.3953c-0.2654,-0.35061 -0.69876,-0.53875 -1.00614,-0.85321c-1.45962,-1.49326 -2.88843,-3.37633 -4.81131,-4.26196c0,0 -0.87959,-0.42079 -0.4588,-1.30039c0.42079,-0.87959 1.30039,-0.4588 1.30039,-0.4588c2.14334,1.05444 3.72009,2.96019 5.36324,4.65691c0.36072,0.37248 0.84998,0.61986 1.16239,1.03369c0.99315,1.3156 1.80117,3.25181 2.51613,4.73108c0.71591,1.48122 1.78598,3.12121 2.25262,4.70565c0.39205,1.33115 0.499,2.96075 0.56533,4.3498l-0.10202,0.85207c0,0 -0.13429,0.96577 -1.10006,0.83148z"/><path d="M276.20711,172.51545c-0.95468,0.19836 -1.15304,-0.75632 -1.15304,-0.75632l-0.1707,-0.83566c-0.18415,-1.58102 -1.01594,-2.85699 -1.70467,-4.28334c-1.32763,-2.74951 -2.83645,-5.40138 -4.47506,-7.98125c-0.86671,-1.36455 -1.82115,-2.86128 -3.4139,-3.3713c0,0 -0.92068,-0.32109 -0.5996,-1.24177c0.32108,-0.92068 1.24177,-0.59959 1.24177,-0.59959c2.05019,0.75513 3.26707,2.36361 4.41634,4.16467c1.68456,2.63994 3.22624,5.36401 4.58659,8.18129c0.7931,1.64251 1.63148,3.06556 1.8827,4.8822l0.14589,0.68804c0,0 0.19836,0.95468 -0.75632,1.15304z"/></g></g></svg>